PathFileType	4	(X/Y/Z)	C:/Users/opensim2020/Desktop/walking_exp_matlab/subject03_walking09_straight_03.trc	
DataRate	CameraRate	NumFrames	NumMarkers	Units	OrigDataRate	OrigDataStartFrame	OrigNumFrames	
100.00	100.00	9	47	mm	100.00	2987	383	
Frame#	Time	LFHD			RFHD			LBHD			RBHD			C7			T10			CLAV			STRN			RBAK			LSHO			LUPA			LELB			LFRM			LWRA			LWRB			LFIN			RSHO			RUPA			RELB			RFRM			RWRA			RWRB			RFIN			LASI			RASI			LPSI			RPSI			LTHI			LKNE			LTIB			LANK			LHEE			LTOE			RTHI			RKNE			RTIB			RANK			RHEE			RTOE			*39			*40			*41			*42			*43			*44			*45			*46			
		X1	Y1	Z1	X2	Y2	Z2	X3	Y3	Z3	X4	Y4	Z4	X5	Y5	Z5	X6	Y6	Z6	X7	Y7	Z7	X8	Y8	Z8	X9	Y9	Z9	X10	Y10	Z10	X11	Y11	Z11	X12	Y12	Z12	X13	Y13	Z13	X14	Y14	Z14	X15	Y15	Z15	X16	Y16	Z16	X17	Y17	Z17	X18	Y18	Z18	X19	Y19	Z19	X20	Y20	Z20	X21	Y21	Z21	X22	Y22	Z22	X23	Y23	Z23	X24	Y24	Z24	X25	Y25	Z25	X26	Y26	Z26	X27	Y27	Z27	X28	Y28	Z28	X29	Y29	Z29	X30	Y30	Z30	X31	Y31	Z31	X32	Y32	Z32	X33	Y33	Z33	X34	Y34	Z34	X35	Y35	Z35	X36	Y36	Z36	X37	Y37	Z37	X38	Y38	Z38	X39	Y39	Z39	X40	Y40	Z40	X41	Y41	Z41	X42	Y42	Z42	X43	Y43	Z43	X44	Y44	Z44	X45	Y45	Z45	X46	Y46	Z46	X47	Y47	Z47	

192	1.910	-1069.48621	399.33997	1623.44543	-938.44458	375.25937	1625.91833	-1087.86743	274.38147	1575.55554	-958.53796	255.89140	1577.77087	-1031.96936	234.07880	1417.17334	-1031.09058	207.65025	1102.68115	-1021.68829	357.25510	1343.29907	-1022.79749	404.89325	1180.12256	-935.74902	177.97432	1241.99866	-1180.01978	322.21155	1377.17529	-1252.87866	338.65781	1181.57336	-1264.99377	362.91501	1061.28137	-1260.72803	405.85925	938.21057	-1228.87439	434.37933	823.34033	-1283.06116	421.08206	827.21899	-1273.01184	447.64307	747.79156	-865.08496	302.10458	1367.00012	-793.69177	315.09644	1144.89600	-781.44989	340.71072	1034.61841	-780.79547	372.00647	901.36078	-816.79449	414.04391	810.77917	-773.64069	382.79257	802.21069	-781.17126	415.61404	736.10669	-1135.72473	386.22507	941.96344	-898.22778	366.65179	940.02277	-1098.46753	221.00388	967.06311	-949.02960	209.41681	969.05505	-1169.72180	337.16611	638.89673	-1123.36938	343.33453	462.29144	-1123.63733	293.22223	272.63025	-1078.77563	267.78140	65.28315	-1046.43445	224.76497	31.63980	-1050.87817	418.77216	30.20785	-851.01428	355.55295	643.91650	-869.83441	412.66379	473.00644	-867.33044	298.73071	318.89877	-908.79651	174.18298	142.80205	-965.24060	123.34789	128.77577	-908.17017	279.86899	50.65920	-1033.40479	306.41693	1682.41711																					 
193	1.920	-1069.16211	406.85156	1623.19177	-938.16803	382.70560	1625.54749	-1087.73291	281.56772	1576.16101	-958.39294	263.02448	1578.21326	-1032.15015	240.64001	1417.22400	-1031.79004	214.50409	1102.65759	-1021.87152	363.81659	1343.39709	-1023.25330	411.64780	1180.28760	-936.32703	184.56010	1241.78870	-1180.09692	328.81729	1377.63599	-1253.59351	346.79041	1182.44812	-1265.91150	372.21674	1062.47217	-1261.40540	417.23032	940.15228	-1229.39050	447.99658	826.04083	-1283.50562	434.30115	829.45056	-1273.24341	462.40778	750.55463	-865.27100	308.32449	1366.96179	-793.76831	320.61819	1144.72083	-781.29089	345.64066	1034.41211	-780.51086	376.49106	901.02277	-816.16449	418.33926	810.25433	-773.22076	386.76343	801.80627	-780.68555	419.22141	735.41315	-1136.39514	392.80795	941.61951	-898.79840	373.66983	940.34619	-1098.73438	227.67159	966.96735	-949.31342	216.29604	969.19635	-1169.80164	342.22549	638.44800	-1123.41528	347.09116	461.80344	-1123.60083	295.39600	272.58252	-1078.81335	267.93405	65.43221	-1046.38477	224.80357	31.88704	-1050.93542	418.74551	30.17441	-851.43634	365.83548	645.01721	-871.06256	424.00156	474.50284	-867.82104	315.08154	316.45065	-908.91486	196.93320	135.78441	-964.88226	146.59003	119.71078	-909.43097	306.27850	48.11570																								 
194	1.930	-1068.86877	414.32236	1622.89209	-937.82947	390.14136	1625.08154	-1087.55420	288.79266	1576.69360	-958.22858	270.17953	1578.54346	-1032.23816	247.27272	1417.21411	-1032.42542	221.36400	1102.58167	-1021.98859	370.33676	1343.37378	-1023.58484	418.32083	1180.32349	-936.98163	191.14339	1241.40295	-1180.19446	335.48056	1378.01672	-1254.11096	354.68536	1183.20227	-1266.62476	381.42313	1063.55383	-1262.03333	428.50784	942.06744	-1229.78503	461.42868	828.42865	-1283.56519	447.20142	831.42938	-1273.27258	476.91852	753.19885	-865.40265	314.50876	1366.82080	-793.86047	326.26077	1144.46460	-781.19482	350.68512	1034.05005	-780.04468	380.94009	900.53790	-815.56927	422.71310	809.59827	-772.86475	390.87500	801.27655	-780.23639	422.99075	734.64783	-1137.04065	399.26190	941.22571	-899.27722	380.65802	940.57202	-1098.90649	234.22702	966.75940	-949.57709	223.17493	969.31763	-1170.55518	346.60025	638.08307	-1123.46533	350.50912	461.26920	-1123.60400	297.56772	272.49451	-1078.74023	268.01764	65.43053	-1046.26819	225.52527	31.48122	-1050.87268	418.80276	30.15545	-851.21576	374.34814	646.16522	-872.35419	435.13821	475.82071	-868.45099	331.33118	314.03391	-909.04932	220.20386	128.75069	-964.81757	170.31258	110.80531	-910.61798	332.93906	45.73027	-1032.60059	322.27786	1682.70581																					 
195	1.940	-1068.43823	421.77673	1622.51221	-937.47522	397.49902	1624.54602	-1087.36646	295.94739	1577.08435	-958.03168	277.34421	1578.74915	-1032.44958	253.93666	1417.11975	-1033.09998	228.15205	1102.49390	-1022.15796	376.96136	1343.26575	-1024.00269	425.05017	1180.26514	-937.65643	197.70302	1241.00500	-1180.25610	342.18182	1378.24084	-1254.71021	362.65302	1183.90613	-1267.38928	390.47772	1064.57654	-1262.67188	439.67963	943.89624	-1230.05408	474.89816	831.04919	-1283.70776	460.11749	833.47437	-1273.18225	491.25632	755.74304	-865.56396	320.79691	1366.36853	-793.91083	331.95108	1144.05847	-781.11023	355.87088	1033.62073	-779.73871	385.61432	899.99493	-815.05188	427.18369	808.91571	-772.45947	395.08240	800.64960	-779.72198	426.73090	733.74976	-1137.60681	405.71014	940.76733	-899.75018	387.59811	940.78101	-1099.16858	240.75766	966.47662	-949.91040	229.95831	969.32605	-1170.70898	351.25665	637.57025	-1123.63440	354.13721	460.70792	-1123.58777	299.77332	272.31647	-1078.67798	268.40668	65.73415	-1046.40381	224.81627	32.23918	-1050.85156	418.75980	30.06592	-851.61224	384.41470	646.92035	-873.45605	445.88553	477.03519	-869.16113	347.49115	311.70309	-909.32776	243.83279	122.11580	-964.82117	194.15190	102.33991	-911.77264	359.72531	43.56172	-1033.91846	330.38177	1679.44946																					 
196	1.950	-1068.01611	429.13782	1622.07959	-937.02094	404.84091	1623.91736	-1087.14172	303.12274	1577.37610	-957.82123	284.40158	1578.85986	-1032.55957	260.67407	1417.00208	-1033.68872	234.89392	1102.09436	-1022.23523	383.60101	1343.02698	-1024.30176	431.71045	1180.05469	-938.37799	204.23792	1240.47131	-1180.29480	348.96768	1378.38428	-1255.26575	370.62881	1184.44592	-1268.13501	399.48929	1065.43542	-1263.29370	450.69409	945.59332	-1230.28113	488.30731	833.61475	-1283.92102	472.96243	835.51129	-1272.97278	505.51788	758.29395	-865.75183	327.04068	1365.88391	-793.96460	337.59940	1143.51526	-781.02502	361.12445	1033.05774	-779.43695	390.32443	899.29987	-814.60529	431.49512	808.00958	-772.05615	399.31586	799.91162	-779.26404	430.69827	732.86896	-1137.95837	411.81097	940.25812	-900.28094	394.50504	941.01355	-1099.43945	247.21915	966.09766	-950.09949	236.75354	969.27179	-1170.87500	355.91779	636.97516	-1123.70532	357.73535	460.24121	-1123.59717	301.93304	272.17056	-1078.64343	268.64197	65.88492	-1046.17786	225.45757	32.13481	-1050.82227	418.78683	30.02459	-851.79675	393.75821	647.65033	-874.52271	456.30203	478.15387	-869.93256	363.53586	309.38013	-909.80853	267.53403	115.68702	-965.28595	218.62648	93.90987	-912.50720	386.59570	41.83742	-1033.34644	338.06827	1679.44006																					 
197	1.960	-1067.36523	436.47760	1621.61328	-936.55560	412.11191	1623.25879	-1086.88599	310.29321	1577.56226	-957.59528	291.39658	1578.76880	-1032.75854	267.47461	1416.74866	-1034.16394	241.60600	1101.75330	-1022.30225	390.22842	1342.67542	-1024.71082	438.42682	1179.74548	-939.06757	210.79808	1239.90564	-1180.38782	355.85785	1378.36646	-1255.72852	378.50546	1184.82129	-1268.83789	408.46326	1066.08679	-1263.70654	461.63397	947.22858	-1230.31104	501.66864	836.35913	-1283.62573	485.60587	837.24030	-1272.57129	519.52527	760.73596	-865.89319	333.28091	1365.22534	-794.04150	343.24451	1142.84924	-781.00208	366.38092	1032.38647	-779.20392	395.09503	898.54053	-814.22894	435.92209	807.04816	-771.67657	403.64798	799.09467	-778.79980	434.74777	731.87500	-1138.57043	418.04169	939.70483	-900.82074	401.35651	941.09509	-1099.54675	253.56903	965.70764	-950.32465	243.43503	969.09894	-1171.18384	360.32367	636.44446	-1123.70581	361.18985	459.69382	-1123.34729	303.99866	272.05234	-1078.59937	268.81790	65.99380	-1046.06335	225.29332	32.49921	-1050.84668	418.86371	30.15387	-851.65948	402.85513	648.26758	-875.38171	466.44708	479.11020	-870.51410	379.43100	307.15482	-910.55060	291.42142	109.42493	-965.48682	243.31139	86.13438	-913.20306	413.33365	40.52236	-1031.11377	345.68234	1682.59619																					 
198	1.970	-1066.83435	443.81665	1621.09131	-936.04242	419.36035	1622.49097	-1086.60352	317.46451	1577.66687	-957.35004	298.51611	1578.61768	-1032.88159	274.25131	1416.44751	-1034.58765	248.29030	1101.39307	-1022.36700	396.91928	1342.24023	-1025.01587	445.04102	1179.33643	-939.80939	217.32561	1239.29443	-1180.45044	362.83087	1378.26404	-1256.13635	386.51620	1185.12012	-1269.42896	417.42673	1066.67542	-1264.08032	472.38113	948.67780	-1230.16357	514.68085	838.78955	-1283.58142	498.11264	839.05908	-1271.99048	533.41895	763.13068	-865.97382	339.56314	1364.48254	-794.06195	348.92920	1142.09546	-780.95300	371.73434	1031.56348	-779.12097	399.93344	897.64594	-813.90979	440.32132	805.91522	-771.36981	408.13010	798.16327	-778.39465	438.93326	730.83960	-1139.32275	424.42300	939.10602	-901.37427	408.19348	941.08203	-1099.65759	259.90454	965.16931	-950.44006	250.11888	968.83801	-1171.13904	364.79852	635.95508	-1123.70813	364.42990	459.14911	-1123.50391	305.71729	271.90222	-1078.51050	268.91406	66.10108	-1045.95764	225.28586	32.72923	-1050.81787	418.87570	30.10093	-851.67584	412.32193	648.67181	-876.14374	476.25677	479.92380	-871.02606	395.24222	304.90833	-911.07788	315.51657	103.71668	-966.05676	268.06039	78.79121	-913.88782	439.99350	39.67947	-1032.01123	353.28494	1679.10559																					 
199	1.980	-1066.25793	451.15906	1620.57227	-935.49750	426.52612	1621.70386	-1086.29504	324.65036	1577.63965	-957.03442	305.54669	1578.26868	-1032.99219	281.11203	1415.99243	-1034.85217	254.94276	1101.02075	-1022.41492	403.61319	1341.73816	-1025.39148	451.75989	1178.81274	-940.43152	223.85403	1238.66528	-1180.46399	369.86276	1378.05847	-1256.47144	394.39386	1185.30896	-1269.87646	426.39340	1067.12219	-1264.22412	483.10098	950.03778	-1229.86938	527.45337	841.13910	-1283.14490	510.39600	840.65692	-1271.26294	547.15479	765.46625	-866.06689	345.93103	1363.62610	-794.07965	354.50705	1141.26208	-780.86292	377.06094	1030.65161	-778.91479	404.79596	896.67853	-813.67694	444.75116	804.73389	-771.00861	412.58829	797.15961	-777.93835	443.14200	729.70386	-1139.80542	430.45145	938.44434	-901.88367	415.02655	940.86316	-1099.62646	266.17761	964.61218	-950.43945	256.77707	968.43268	-1170.33960	370.09552	635.41034	-1123.64526	367.50085	458.72217	-1123.49683	307.31219	271.78183	-1078.40186	269.05920	66.25907	-1045.84119	225.29434	32.95341	-1050.79993	418.88211	30.06535	-850.99811	420.57593	649.09674	-876.73657	485.72824	480.52814	-871.45789	410.92621	302.72351	-911.66748	339.58426	98.36030	-966.74677	293.28549	71.54398	-914.67548	466.60056	39.36667	-1031.40454	360.74088	1678.85413																					 
200	1.990	-1065.68872	458.46912	1620.01331	-934.92883	433.73889	1620.84790	-1086.03442	331.89832	1577.49976	-956.76367	312.61758	1577.92969	-1033.09888	287.98438	1415.62830	-1035.03418	261.52405	1100.57483	-1022.47675	410.37619	1341.16626	-1025.73218	458.34778	1178.20361	-941.10388	230.37108	1238.02917	-1180.47729	376.92435	1377.74683	-1256.85364	402.60638	1185.37427	-1270.22229	435.32037	1067.48633	-1264.22510	493.67877	951.26526	-1229.55371	539.85706	843.24493	-1282.54517	522.63251	842.20715	-1270.31958	560.71259	767.74872	-866.13782	352.23782	1362.76392	-794.09369	360.06519	1140.32715	-780.80615	382.41080	1029.65918	-778.75830	409.67050	895.59857	-813.44653	449.30145	803.46490	-770.68103	417.12833	796.07672	-777.53442	447.46863	728.61389	-1140.28503	436.65683	937.79993	-902.33630	421.79074	940.47949	-1099.63354	272.47641	964.00659	-950.41498	263.39218	967.85229	-1170.19446	374.82230	634.87036	-1123.68811	370.32477	458.25110	-1123.42834	308.75797	271.68848	-1078.31372	269.18347	66.43558	-1045.68262	225.25636	33.15265	-1050.86548	418.96069	30.21602	-850.47742	428.76596	649.30487	-877.19550	495.01068	480.91876	-871.89026	426.37036	300.66348	-912.21606	363.60742	93.46803	-967.14935	318.04257	65.06605	-915.68463	492.94589	39.57275	-1030.55530	368.20526	1678.41650																					 
